<svg width="22" height="20" viewBox="0 0 22 20" fill="none" xmlns="http://www.w3.org/2000/svg">
<path d="M16.0028 0.00416133L13.2357 0C10.1268 0 8.11778 1.9319 8.11778 4.92203V7.19141H5.3355C5.09508 7.19141 4.90039 7.37409 4.90039 7.59943V10.8875C4.90039 11.1128 5.0953 11.2953 5.3355 11.2953H8.11778V19.5922C8.11778 19.8175 8.31247 20 8.55289 20H12.183C12.4234 20 12.6181 19.8173 12.6181 19.5922V11.2953H15.8712C16.1116 11.2953 16.3063 11.1128 16.3063 10.8875L16.3077 7.59943C16.3077 7.49123 16.2617 7.38762 16.1802 7.31105C16.0988 7.23448 15.9878 7.19141 15.8723 7.19141H12.6181V5.26763C12.6181 4.34298 12.8532 3.87358 14.1383 3.87358L16.0024 3.87295C16.2426 3.87295 16.4373 3.69027 16.4373 3.46514V0.411972C16.4373 0.187052 16.2428 0.00457747 16.0028 0.00416133Z" fill="white"/>
</svg>
