<svg width="38" height="20" viewBox="0 0 38 20" fill="none" xmlns="http://www.w3.org/2000/svg">
<path d="M37.4839 18.0622C37.4386 17.9707 37.3964 17.8948 37.3572 17.834C36.7083 16.7387 35.4682 15.3942 33.6378 13.8002L33.5991 13.7637L33.5798 13.7458L33.5602 13.7275H33.5405C32.7098 12.9852 32.1837 12.4861 31.9634 12.2306C31.5603 11.7439 31.47 11.2512 31.6903 10.752C31.846 10.3749 32.4306 9.57835 33.4429 8.3614C33.9754 7.71645 34.3971 7.19955 34.7086 6.81011C36.9546 4.01144 37.9284 2.22306 37.6297 1.44425L37.5136 1.26225C37.4357 1.15269 37.2345 1.05245 36.9103 0.961035C36.5854 0.869813 36.1701 0.854728 35.6636 0.915521L30.0555 0.95183C29.9647 0.921657 29.8349 0.92447 29.6659 0.961035C29.4971 0.997601 29.4127 1.01595 29.4127 1.01595L29.3151 1.06165L29.2376 1.11657C29.1727 1.15288 29.1013 1.21674 29.0233 1.30803C28.9458 1.39899 28.8809 1.50575 28.8291 1.6274C28.2185 3.09967 27.5243 4.46851 26.7452 5.73386C26.2648 6.48838 25.8237 7.14227 25.4208 7.69593C25.0184 8.2494 24.6809 8.65718 24.4085 8.91858C24.1356 9.18022 23.8894 9.38984 23.6683 9.54818C23.4475 9.70659 23.279 9.77352 23.1623 9.74904C23.0453 9.72455 22.9352 9.70026 22.8309 9.67597C22.6492 9.5664 22.5031 9.41739 22.393 9.22881C22.2824 9.04023 22.2079 8.80287 22.1689 8.51693C22.1302 8.2308 22.1073 7.98469 22.1007 7.77776C22.0947 7.57109 22.0975 7.27875 22.1106 6.90159C22.1241 6.52424 22.1302 6.26892 22.1302 6.13506C22.1302 5.67262 22.1398 5.17074 22.1591 4.62929C22.1788 4.08784 22.1947 3.65883 22.208 3.34278C22.2212 3.02641 22.2273 2.6917 22.2273 2.33883C22.2273 1.98596 22.2044 1.70922 22.1591 1.50837C22.1144 1.30777 22.0457 1.11305 21.9552 0.924278C21.8641 0.735697 21.7309 0.589819 21.556 0.486259C21.3808 0.382827 21.1629 0.300747 20.9037 0.239761C20.2155 0.0938189 19.3393 0.0148707 18.2746 0.00259691C15.86 -0.0216949 14.3086 0.124439 13.6205 0.440808C13.3479 0.574476 13.1012 0.757112 12.8806 0.98814C12.6469 1.25592 12.6143 1.40206 12.783 1.4261C13.562 1.53547 14.1136 1.79712 14.4381 2.21078L14.5551 2.42999C14.6461 2.58814 14.737 2.86813 14.8279 3.26959C14.9187 3.67104 14.9772 4.11513 15.003 4.60161C15.0678 5.48998 15.0678 6.25044 15.003 6.88305C14.938 7.51592 14.8766 8.00859 14.818 8.36146C14.7595 8.71433 14.6719 9.00027 14.5551 9.21922C14.4381 9.43823 14.3603 9.57209 14.3213 9.62067C14.2824 9.66926 14.2499 9.69988 14.2241 9.7119C14.0554 9.7725 13.8799 9.80337 13.6983 9.80337C13.5164 9.80337 13.2958 9.7181 13.0362 9.54767C12.7767 9.37724 12.5073 9.14315 12.2282 8.845C11.949 8.54678 11.6342 8.13005 11.2835 7.59474C10.9331 7.05942 10.5696 6.42675 10.1931 5.69672L9.88162 5.16729C9.6869 4.82669 9.4209 4.33075 9.08335 3.67993C8.7456 3.02884 8.44706 2.39905 8.18754 1.79066C8.0838 1.53515 7.92795 1.34063 7.72027 1.20677L7.6228 1.15185C7.558 1.10327 7.45399 1.05168 7.31131 0.996706C7.16842 0.941794 7.01932 0.902415 6.8634 0.878187L1.52777 0.914498C0.982537 0.914498 0.612591 1.03027 0.417797 1.26149L0.339838 1.37086C0.300893 1.43178 0.28125 1.52908 0.28125 1.663C0.28125 1.79686 0.320195 1.96115 0.398154 2.15568C1.17706 3.87145 2.0241 5.52617 2.93928 7.12009C3.85446 8.71401 4.64973 9.99796 5.32462 10.9708C5.99965 11.9443 6.68771 12.8631 7.38879 13.7268C8.08987 14.5907 8.55394 15.1444 8.78099 15.3876C9.00832 15.6313 9.18688 15.8135 9.31668 15.9351L9.8036 16.3731C10.1152 16.6652 10.5727 17.015 11.1764 17.4225C11.7802 17.8303 12.4487 18.2317 13.1821 18.6275C13.9158 19.0226 14.7692 19.3451 15.743 19.5944C16.7166 19.8441 17.6643 19.9442 18.5861 19.8959H20.8255C21.2797 19.8591 21.6238 19.7253 21.8577 19.4943L21.9351 19.4028C21.9872 19.3302 22.036 19.2173 22.081 19.0655C22.1266 18.9134 22.1492 18.7459 22.1492 18.5636C22.1359 18.0405 22.1784 17.5691 22.2755 17.1493C22.3726 16.7297 22.4832 16.4134 22.607 16.2003C22.7306 15.9874 22.8702 15.8078 23.0255 15.6622C23.1811 15.5162 23.292 15.4278 23.3571 15.3974C23.4217 15.3668 23.4734 15.346 23.5123 15.3335C23.8239 15.2362 24.1905 15.3305 24.6129 15.6167C25.0349 15.9026 25.4307 16.2557 25.8009 16.6753C26.1709 17.0953 26.6155 17.5665 27.1346 18.0896C27.6541 18.6129 28.1084 19.0018 28.4977 19.2577L28.887 19.4767C29.147 19.6229 29.4846 19.7567 29.9001 19.8784C30.3148 20 30.6782 20.0304 30.9903 19.9696L35.9752 19.8967C36.4683 19.8967 36.8519 19.8202 37.124 19.6684C37.3967 19.5163 37.5587 19.3488 37.611 19.1665C37.6631 18.9841 37.6659 18.7771 37.6209 18.5457C37.5747 18.3148 37.5292 18.1534 37.4839 18.0622Z" fill="white"/>
</svg>
