<svg width="80" height="80" viewBox="0 0 80 80" fill="none" xmlns="http://www.w3.org/2000/svg">
<g clip-path="url(#clip0_443_2430)">
<path d="M73.3331 45.3345C74.0705 45.3345 74.6664 44.7372 74.6664 44.0013V38.668C74.6664 37.932 74.0705 37.3347 73.3331 37.3347H66.6664V36.0012C66.6664 35.2653 66.0705 34.668 65.3331 34.668C64.5958 34.668 63.9998 35.2653 63.9998 36.0012V37.3345H26.6666V36.0012C26.6666 35.2653 26.0692 34.668 25.3333 34.668C24.5973 34.668 24 35.2653 24 36.0012V37.3345H17.3333C16.5973 37.3345 16 37.9319 16 38.6678V44.0013C16 44.7372 16.5973 45.3345 17.3333 45.3345H25.3333H65.3333H73.3331V45.3345ZM18.6666 42.668V40.0013H71.9998V42.668H18.6666Z" fill="#D4C17F"/>
<path d="M48.0007 29.332C45.8447 29.332 44.4513 30.9706 44.2993 31.1587C43.8379 31.7255 43.9233 32.5534 44.4872 33.0202C45.0526 33.4881 45.8887 33.4069 46.3619 32.8495C46.3672 32.8402 47.0899 31.9989 48.0005 31.9989C48.9112 31.9989 49.6326 32.8403 49.6326 32.8403C49.8966 33.1644 50.2805 33.3323 50.6685 33.3323C50.9644 33.3323 51.2605 33.235 51.5085 33.0337C52.0805 32.5697 52.1658 31.7297 51.7018 31.1591C51.5501 30.9708 50.1566 29.332 48.0007 29.332Z" fill="#D4C17F"/>
<path d="M73.3331 55.9984C74.0705 55.9984 74.6664 55.4011 74.6664 54.6652V49.3319C74.6664 48.5959 74.0705 47.9986 73.3331 47.9986H66.6664V46.6653C66.6664 45.9294 66.0705 45.332 65.3331 45.332C64.5958 45.332 63.9998 45.9294 63.9998 46.6653V47.9986H26.6666V46.6653C26.6666 45.9294 26.0692 45.332 25.3333 45.332C24.5973 45.332 24 45.9294 24 46.6653V47.9986H17.3333C16.5973 47.9986 16 48.5959 16 49.3319V54.6652C16 55.4011 16.5973 55.9984 17.3333 55.9984H25.3333H65.3333H73.3331ZM18.6666 53.3317V50.665H71.9998V53.3317H18.6666Z" fill="#D4C17F"/>
<path d="M54.9649 26.1747C55.229 26.5 55.6129 26.668 56.0008 26.668C56.2968 26.668 56.5929 26.5706 56.8408 26.3694C57.4129 25.9053 57.4982 25.0653 57.0341 24.4947C56.8821 24.3067 55.4888 22.668 53.3327 22.668C51.1766 22.668 49.7833 24.3066 49.6313 24.4947C49.1699 25.0614 49.2554 25.8894 49.8193 26.3561C50.3846 26.8255 51.2207 26.7428 51.6926 26.1855C51.6993 26.1761 52.4219 25.3348 53.3326 25.3348C54.2437 25.3347 54.9649 26.1747 54.9649 26.1747Z" fill="#D4C17F"/>
<path d="M1.33971 17.4667C1.40768 18.1481 1.98112 18.6667 2.66643 18.6667H10.6664C11.3517 18.6667 11.925 18.1481 11.9931 17.4667L13.3264 4.13344C13.3638 3.7575 13.2411 3.38547 12.9878 3.10547C12.7358 2.82672 12.3772 2.66688 11.9999 2.66688H7.99971V1.33328C7.99971 0.597344 7.40237 0 6.66643 0C5.93049 0 5.33315 0.597344 5.33315 1.33328V2.66656H1.33315C0.955803 2.66656 0.597209 2.82656 0.345178 3.10516C0.0918969 3.38516 -0.0307593 3.75719 0.00658443 4.13312L1.33971 17.4667ZM10.5264 5.33328L9.45971 16H3.87299L2.80627 5.33328H10.5264V5.33328Z" fill="#D4C17F"/>
<path d="M37.334 30.6667C37.334 32.1573 37.9434 33.5441 39.0499 34.5694C39.3059 34.8067 39.6313 34.9253 39.9566 34.9253C40.314 34.9253 40.6713 34.7813 40.934 34.4986C41.434 33.9586 41.4034 33.1145 40.8634 32.6133C40.306 32.0986 40.0007 31.4066 40.0007 30.6666C40.0007 29.5625 40.7034 28.5613 41.7513 28.1759C42.186 28.0159 42.506 27.6413 42.5966 27.1866C42.6887 26.7319 42.5352 26.2625 42.1966 25.9466C41.6393 25.4319 41.334 24.7398 41.334 23.9998C41.334 22.6131 42.426 21.4531 43.8193 21.3572C44.3313 21.3225 44.7766 20.9986 44.9673 20.5225C45.1566 20.0466 45.0579 19.5039 44.7113 19.1266C44.2527 18.6266 44.0007 17.9892 44.0007 17.3333C44.0007 15.9466 45.0927 14.7866 46.486 14.6906C46.9981 14.6559 47.4434 14.332 47.634 13.8559C47.8234 13.38 47.7246 12.8373 47.378 12.46C46.9207 11.96 46.6674 11.3227 46.6674 10.6667C46.6674 9.47469 47.4795 8.42266 48.6407 8.10813C49.0101 8.00813 49.3166 7.75609 49.486 7.41609C49.6566 7.07609 49.6727 6.6775 49.5301 6.32547C49.4007 5.99875 49.3341 5.66547 49.3341 5.33344C49.3341 3.86281 50.5301 2.66672 52.0009 2.66672C53.4715 2.66672 54.6676 3.86266 54.6676 5.33344C54.6676 5.66547 54.6009 5.99875 54.4716 6.32547C54.329 6.6775 54.3449 7.07609 54.5157 7.41609C54.6851 7.75609 54.9916 8.00813 55.361 8.10813C56.5224 8.42281 57.3343 9.47484 57.3343 10.6667C57.3343 11.3227 57.081 11.96 56.6237 12.46C56.277 12.8373 56.1784 13.38 56.3677 13.8559C56.5584 14.3319 57.0037 14.6559 57.5157 14.6906C58.909 14.7866 60.001 15.9466 60.001 17.3333C60.001 17.9892 59.7477 18.6266 59.2904 19.1266C58.9437 19.5039 58.8451 20.0466 59.0345 20.5225C59.2251 20.9984 59.6704 21.3225 60.1824 21.3572C61.5757 21.4531 62.6677 22.6131 62.6677 23.9998C62.6677 24.7398 62.3624 25.4319 61.8051 25.9466C61.4665 26.2625 61.3131 26.7319 61.4051 27.1866C61.4957 27.6413 61.8157 28.0159 62.2518 28.1759C63.2985 28.5613 64.0012 29.5627 64.0012 30.6666C64.0012 31.4025 64.5971 31.9998 65.3345 31.9998C66.0718 31.9998 66.6677 31.4025 66.6677 30.6666C66.6677 29.0425 65.9145 27.5319 64.6891 26.5372C65.1106 25.7678 65.3345 24.9025 65.3345 23.9998C65.3345 21.9145 64.1077 20.0825 62.3185 19.2158C62.5479 18.6184 62.6679 17.9811 62.6679 17.3331C62.6679 15.2478 61.4412 13.4158 59.652 12.5491C59.8813 11.9517 60.0013 11.3144 60.0013 10.6664C60.0013 8.72234 58.932 6.96641 57.2866 6.03703C57.3187 5.80375 57.3346 5.56906 57.3346 5.33297C57.334 2.39203 54.9421 0 52.0007 0C49.0593 0 46.6674 2.39203 46.6674 5.33328C46.6674 5.56922 46.6834 5.80391 46.7154 6.03734C45.0701 6.96672 44.0007 8.72266 44.0007 10.6667C44.0007 11.3147 44.1207 11.952 44.3501 12.5494C42.5607 13.4161 41.3341 15.248 41.3341 17.3334C41.3341 17.9814 41.4541 18.6188 41.6835 19.2161C39.8941 20.0828 38.6676 21.9147 38.6676 24.0002C38.6676 24.9028 38.8916 25.7681 39.3129 26.5375C38.0874 27.532 37.334 29.0427 37.334 30.6667Z" fill="#D4C17F"/>
<path d="M50.1582 18.5627C50.8355 18.8427 51.6155 18.52 51.8996 17.8427C51.9249 17.7786 51.9622 17.708 51.9996 17.6386C52.0369 17.7053 52.0716 17.7745 52.0969 17.8372C52.3076 18.3545 52.8063 18.6692 53.3329 18.6692C53.5008 18.6692 53.6702 18.6372 53.8341 18.5692C54.5168 18.2933 54.8462 17.5145 54.5688 16.8333C54.4208 16.4719 53.6076 14.668 51.9994 14.668C50.3915 14.668 49.578 16.472 49.4301 16.8333C49.1541 17.5119 49.4808 18.2827 50.1582 18.5627Z" fill="#D4C17F"/>
<path d="M78.6667 77.332H57.3333C56.5959 77.332 56 77.9294 56 78.6653C56 79.4012 56.5959 79.9986 57.3333 79.9986H78.6666C79.4039 79.9986 79.9998 79.4012 79.9998 78.6653C79.9998 77.9294 79.4041 77.332 78.6667 77.332Z" fill="#D4C17F"/>
<path d="M78.666 58.6666H66.666V57.3333C66.666 56.5973 66.0701 56 65.3327 56C64.5954 56 63.9995 56.5973 63.9995 57.3333V58.6666H26.666V57.3333C26.666 56.5973 26.0687 56 25.3327 56C24.5968 56 23.9995 56.5973 23.9995 57.3333V58.6666H11.9993C11.2634 58.6666 10.666 59.2639 10.666 59.9998V65.3331C10.666 66.0691 11.2634 66.6664 11.9993 66.6664H15.9993V73.3331C15.9993 74.0691 16.5966 74.6664 17.3326 74.6664C18.0685 74.6664 18.6659 74.0691 18.6659 73.3331V66.6664H71.9993V73.3331C71.9993 74.0691 72.5952 74.6664 73.3326 74.6664C74.0699 74.6664 74.6659 74.0691 74.6659 73.3331V66.6664H78.6659C79.4032 66.6664 79.9991 66.0691 79.9991 65.3331V59.9998C79.9993 59.2639 79.4034 58.6666 78.666 58.6666ZM77.3326 63.9998H13.3326V61.3331H77.3326V63.9998Z" fill="#D4C17F"/>
<path d="M19.9998 77.3319H7.99984V22.6653C7.99984 21.9294 7.4025 21.332 6.66656 21.332C5.93063 21.332 5.33328 21.9294 5.33328 22.6653V77.332H1.33328C0.597344 77.332 0 77.9294 0 78.6653C0 79.4013 0.597187 79.9986 1.33313 79.9986H19.9998C20.7358 79.9986 21.3331 79.4013 21.3331 78.6653C21.3331 77.9294 20.7358 77.3319 19.9998 77.3319Z" fill="#D4C17F"/>
<path d="M52 77.332H49.3333C48.5959 77.332 48 77.9294 48 78.6653C48 79.4012 48.5959 79.9986 49.3333 79.9986H52C52.7373 79.9986 53.3333 79.4012 53.3333 78.6653C53.3333 77.9294 52.7373 77.332 52 77.332Z" fill="#D4C17F"/>
<path d="M41.3326 77.332H27.9993C27.2634 77.332 26.666 77.9294 26.666 78.6653C26.666 79.4012 27.2634 79.9987 27.9993 79.9987H41.3326C42.0699 79.9987 42.6659 79.4014 42.6659 78.6655C42.6659 77.9295 42.0699 77.332 41.3326 77.332Z" fill="#D4C17F"/>
</g>
<defs>
<clipPath id="clip0_443_2430">
<rect width="80" height="80" fill="white"/>
</clipPath>
</defs>
</svg>
