<svg width="80" height="80" viewBox="0 0 80 80" fill="none" xmlns="http://www.w3.org/2000/svg">
<path d="M20 68H1.33328C0.595938 68 0 68.5973 0 69.3333C0 70.0692 0.595938 70.6666 1.33328 70.6666H20C20.7373 70.6666 21.3333 70.0692 21.3333 69.3333C21.3333 68.5973 20.7373 68 20 68Z" fill="#D4C17F"/>
<path d="M15.9998 65.3319C24.8225 65.3319 31.9998 58.1531 31.9998 49.3319C31.9998 44.9145 30.2384 40.8012 27.0398 37.7492C26.5092 37.2425 25.6625 37.2625 25.1545 37.7933C24.6466 38.3266 24.6666 39.1706 25.1986 39.6786C27.8639 42.2227 29.3333 45.6492 29.3333 49.3319C29.3333 56.6839 23.3519 62.6652 16 62.6652C8.64812 62.6652 2.66672 56.6837 2.66672 49.3319C2.66672 41.9786 8.64812 35.9986 16 35.9986C16.7373 35.9986 17.3333 35.4012 17.3333 34.6653C17.3333 33.928 16.7373 33.332 16 33.332C7.17734 33.332 2.55111e-09 40.5094 2.55111e-09 49.332C-0.000156247 58.1531 7.17719 65.3319 15.9998 65.3319Z" fill="#D4C17F"/>
<path d="M22.6674 28H23.3434L15.6407 46.7027C14.3421 46.88 13.334 47.9853 13.334 49.3333C13.334 50.8039 14.5299 52 16.0007 52C17.4713 52 18.6674 50.8041 18.6674 49.3333C18.6674 48.7227 18.4541 48.168 18.1074 47.7174L25.6315 29.448L34.0702 41.7C34.4862 42.3067 35.3143 42.4613 35.9235 42.0427C36.5315 41.6241 36.6835 40.7947 36.2649 40.188L27.8702 28H30.6676C32.8729 28 34.6676 26.2053 34.6676 24C34.6676 21.7933 32.8729 20 30.6676 20H22.6676C21.9302 20 21.3343 20.5959 21.3343 21.3333V26.6666C21.334 27.4028 21.9301 28 22.6674 28ZM24.0007 22.6667H30.6674C31.4034 22.6667 32.0007 23.2641 32.0007 24C32.0007 24.7347 31.4034 25.3333 30.6674 25.3333H24.0007V22.6667Z" fill="#D4C17F"/>
<path d="M62.6667 34.6653C62.6667 35.4013 63.2627 35.9986 64 35.9986C71.352 35.9986 77.3333 41.9786 77.3333 49.3319C77.3333 56.6839 71.3519 62.6652 64 62.6652C56.6481 62.6652 50.6667 56.6837 50.6667 49.3319C50.6667 45.3359 52.4361 41.5852 55.5241 39.0386C56.0908 38.5706 56.172 37.7306 55.7027 37.1627C55.2347 36.5959 54.3959 36.512 53.8253 36.9814C50.1239 40.0361 48 44.5361 48 49.332C48 58.1533 55.1773 65.332 64 65.332C72.8227 65.332 80 58.1533 80 49.332C80 40.5094 72.8227 33.332 64 33.332C63.2627 33.332 62.6667 33.928 62.6667 34.6653Z" fill="#D4C17F"/>
<path d="M41.3326 68H27.9993C27.262 68 26.666 68.5973 26.666 69.3333C26.666 70.0692 27.262 70.6666 27.9993 70.6666H41.3326C42.0699 70.6666 42.6659 70.0692 42.6659 69.3333C42.666 68.5973 42.0699 68 41.3326 68Z" fill="#D4C17F"/>
<path d="M41.3327 42.8559V38.6666C42.0701 38.6666 42.666 38.0692 42.666 37.3333C42.666 36.5959 42.0701 36 41.3327 36H38.666C37.9287 36 37.3327 36.5959 37.3327 37.3333C37.3327 38.0692 37.9287 38.6666 38.666 38.6666V42.8559C36.3713 43.4519 34.666 45.5213 34.666 48C34.666 50.4774 36.3713 52.5467 38.666 53.1441V57.3335C37.9287 57.3335 37.3327 57.9294 37.3327 58.6667C37.3327 59.4027 37.9287 60 38.666 60H41.3327C42.0701 60 42.666 59.4027 42.666 58.6667C42.666 57.9294 42.0701 57.3335 41.3327 57.3335V53.1441C43.6274 52.5467 45.3327 50.4774 45.3327 48C45.3327 45.5213 43.6274 43.4519 41.3327 42.8559ZM39.9995 50.6666C38.5301 50.6666 37.3327 49.4706 37.3327 47.9998C37.3327 46.5292 38.5301 45.3331 39.9995 45.3331C41.4701 45.3331 42.6662 46.5291 42.6662 47.9998C42.6662 49.4706 41.4701 50.6666 39.9995 50.6666Z" fill="#D4C17F"/>
<path d="M61.9458 47.6516C61.5699 48.1116 61.3338 48.6916 61.3338 49.3316C61.3338 50.8022 62.5312 51.9983 64.0005 51.9983C65.4699 51.9983 66.6672 50.8024 66.6672 49.3316C66.6672 48.0116 65.7005 46.921 64.4419 46.7089L58.4246 30.6649H67.9432C69.5391 30.6649 70.4672 29.3889 70.6418 28.2595L71.9738 21.5928C72.0524 21.2008 71.9512 20.7942 71.6979 20.4861C71.4446 20.1767 71.0672 19.9981 70.6672 19.9981H58.6673C57.9299 19.9981 57.334 20.5941 57.334 21.3314C57.334 22.0674 57.9299 22.6647 58.6673 22.6647H69.0405L68.0219 27.7661C68.0019 27.8581 67.9446 27.9875 67.9433 27.9981H57.4248L53.2501 16.8635C53.2474 16.8581 53.2434 16.8555 53.2421 16.8502C53.2394 16.8449 53.2407 16.8395 53.2394 16.8355L50.5727 10.1688C50.2994 9.48471 49.5168 9.15674 48.8394 9.42611C48.1554 9.69939 47.8221 10.4755 48.0954 11.1594L50.5248 17.2274L45.5101 26.0033C45.1434 26.642 45.366 27.4566 46.006 27.822C46.214 27.9406 46.4419 27.998 46.666 27.998C47.1301 27.998 47.5793 27.7567 47.8246 27.326L51.7499 20.458L54.9579 29.0139L44.7965 40.4445C44.3059 40.9952 44.3565 41.8378 44.9071 42.3272C45.1604 42.5539 45.4765 42.6645 45.7924 42.6645C46.1591 42.6645 46.5257 42.5125 46.7884 42.2166L56.0163 31.8366L61.9458 47.6516Z" fill="#D4C17F"/>
<path d="M78.6667 68H57.3333C56.5959 68 56 68.5973 56 69.3333C56 70.0692 56.5959 70.6666 57.3333 70.6666H78.6666C79.4039 70.6666 79.9998 70.0692 79.9998 69.3333C80 68.5973 79.4041 68 78.6667 68Z" fill="#D4C17F"/>
<path d="M52 68H49.3333C48.5959 68 48 68.5973 48 69.3333C48 70.0692 48.5959 70.6666 49.3333 70.6666H52C52.7373 70.6666 53.3333 70.0692 53.3333 69.3333C53.3333 68.5973 52.7373 68 52 68Z" fill="#D4C17F"/>
</svg>
