<svg width="80" height="80" viewBox="0 0 80 80" fill="none" xmlns="http://www.w3.org/2000/svg">
<g clip-path="url(#clip0_443_2446)">
<path d="M57.3326 74.668H19.9993C19.2634 74.668 18.666 75.2653 18.666 76.0012V78.668C18.666 79.4039 19.2634 80.0013 19.9993 80.0013C20.7352 80.0013 21.3326 79.4039 21.3326 78.668V77.3347H57.3326C58.0685 77.3347 58.6659 76.7373 58.6659 76.0014C58.6659 75.2655 58.0687 74.668 57.3326 74.668Z" fill="#D4C17F"/>
<path d="M29.334 33.3333C29.334 34.0692 29.9313 34.6666 30.6673 34.6666H36.0007C36.7366 34.6666 37.334 34.0692 37.334 33.3333V25.3333C37.334 24.5973 36.7366 24 36.0007 24H30.6674C29.9315 24 29.3341 24.5973 29.3341 25.3333V33.3333H29.334ZM32.0007 26.6667H34.6674V32H32.0007V26.6667Z" fill="#D4C17F"/>
<path d="M17.3333 16H1.33328C0.597344 16 0 16.5973 0 17.3333V44C0 44.7359 0.597344 45.3333 1.33328 45.3333C2.06922 45.3333 2.66656 44.7359 2.66656 44V18.6667H17.3333C18.0692 18.6667 18.6666 18.0694 18.6666 17.3334C18.6666 16.5975 18.0694 16 17.3333 16Z" fill="#D4C17F"/>
<path d="M64 65.3333C64 66.0692 64.5973 66.6666 65.3333 66.6666H70.6666C71.4025 66.6666 71.9998 66.0692 71.9998 65.3333V57.3333C71.9998 56.5973 71.4025 56 70.6666 56H65.3333C64.5973 56 64 56.5973 64 57.3333V65.3333ZM66.6667 58.6667H69.3334V64H66.6667V58.6667Z" fill="#D4C17F"/>
<path d="M6.66672 48C0.0759375 48 0 65.16 0 65.3333C0 68.5533 2.29469 71.2453 5.33328 71.8653V78.6667C5.33328 79.4027 5.93063 80 6.66656 80C7.4025 80 7.99984 79.4027 7.99984 78.6667V71.8653C11.0384 71.2453 13.3331 68.5533 13.3331 65.3333C13.3333 65.16 13.2573 48 6.66672 48ZM6.66672 69.3333C4.46141 69.3333 2.66672 67.5386 2.66672 65.3333C2.66672 58.6906 4.45078 50.6666 6.66672 50.6666C8.88266 50.6666 10.6667 58.6906 10.6667 65.3333C10.6667 67.5386 8.87203 69.3333 6.66672 69.3333Z" fill="#D4C17F"/>
<path d="M14.6667 40H9.33328C8.59734 40 8 40.5973 8 41.3333V44C8 44.7359 8.59734 45.3333 9.33328 45.3333C10.0692 45.3333 10.6666 44.7359 10.6666 44V42.6667H13.3333V49.3334C13.3333 50.0694 13.9306 50.6667 14.6666 50.6667C15.4025 50.6667 15.9998 50.0694 15.9998 49.3334V41.3334C16 40.5973 15.4027 40 14.6667 40Z" fill="#D4C17F"/>
<path d="M65.3333 34.6666H70.6666C71.4025 34.6666 71.9998 34.0692 71.9998 33.3333V25.3333C71.9998 24.5973 71.4025 24 70.6666 24H65.3333C64.5973 24 64 24.5973 64 25.3333V33.3333C64 34.0692 64.5973 34.6666 65.3333 34.6666ZM66.6667 26.6666H69.3334V31.9998H66.6667V26.6666Z" fill="#D4C17F"/>
<path d="M14.6667 24H9.33328C8.59734 24 8 24.5973 8 25.3333V33.3333C8 34.0692 8.59734 34.6666 9.33328 34.6666H14.6666C15.4025 34.6666 15.9998 34.0692 15.9998 33.3333V25.3333C16 24.5973 15.4027 24 14.6667 24ZM13.3333 32H10.6667V26.6667H13.3334V32H13.3333Z" fill="#D4C17F"/>
<path d="M42.666 33.3333C42.666 34.0692 43.2634 34.6666 43.9993 34.6666H49.3326C50.0685 34.6666 50.6659 34.0692 50.6659 33.3333V25.3333C50.6659 24.5973 50.0685 24 49.3326 24H43.9993C43.2634 24 42.666 24.5973 42.666 25.3333V33.3333ZM45.3326 26.6667H47.9993V32H45.3326V26.6667Z" fill="#D4C17F"/>
<path d="M78.6673 16H62.6673C61.9313 16 61.334 16.5973 61.334 17.3333C61.334 18.0692 61.9313 18.6666 62.6673 18.6666H77.334V72.2453C76.9154 72.0959 76.4713 72 76.0007 72C75.7701 72 75.5407 72.02 75.3154 72.06C74.3954 70.4027 72.6448 69.3333 70.6674 69.3333C68.6901 69.3333 66.9395 70.4027 66.0195 72.06C65.7941 72.02 65.5648 72 65.3341 72C63.1288 72 61.3341 73.7947 61.3341 76C61.3341 78.2053 63.1288 80 65.3341 80H76.0005C78.2059 80 80.0005 78.2053 80.0005 76V17.3333C80.0005 16.5973 79.4032 16 78.6673 16ZM76.0005 77.3333H65.3338C64.5991 77.3333 64.0005 76.7347 64.0005 76C64.0005 75.2653 64.5991 74.6667 65.3338 74.6667C65.5898 74.6667 65.8324 74.74 66.0565 74.8841C66.4218 75.1187 66.8779 75.1614 67.2805 74.9987C67.6832 74.8361 67.9805 74.4867 68.0779 74.0641C68.3593 72.8494 69.4246 72 70.6673 72C71.9099 72 72.9752 72.8494 73.2566 74.0641C73.354 74.4867 73.6513 74.8361 74.054 74.9987C74.4554 75.1614 74.9126 75.1187 75.278 74.8841C76.146 74.3241 77.334 75.0094 77.334 76C77.3338 76.7347 76.7352 77.3333 76.0005 77.3333Z" fill="#D4C17F"/>
<path d="M43.9993 18.6666H49.3326C50.0685 18.6666 50.6659 18.0692 50.6659 17.3333V9.33328C50.6659 8.59734 50.0685 8 49.3326 8H43.9993C43.2634 8 42.666 8.59734 42.666 9.33328V17.3333C42.666 18.0692 43.2634 18.6666 43.9993 18.6666ZM45.3326 10.6666H47.9993V15.9998H45.3326V10.6666Z" fill="#D4C17F"/>
<path d="M42.666 49.3333C42.666 50.0692 43.2634 50.6666 43.9993 50.6666H49.3326C50.0685 50.6666 50.6659 50.0692 50.6659 49.3333V41.3333C50.6659 40.5973 50.0685 40 49.3326 40H43.9993C43.2634 40 42.666 40.5973 42.666 41.3333V49.3333ZM45.3326 42.6667H47.9993V48H45.3326V42.6667Z" fill="#D4C17F"/>
<path d="M30.6673 18.6666H36.0005C36.7365 18.6666 37.3338 18.0692 37.3338 17.3333V9.33328C37.3338 8.59734 36.7365 8 36.0005 8H30.6673C29.9313 8 29.334 8.59734 29.334 9.33328V17.3333C29.3338 18.0692 29.9312 18.6666 30.6673 18.6666ZM32.0005 10.6666H34.6673V15.9998H32.0005V10.6666Z" fill="#D4C17F"/>
<path d="M39.0527 64.3857C38.8127 64.639 38.666 64.9857 38.666 65.3324C38.666 65.6791 38.8127 66.0257 39.0527 66.2791C39.306 66.5191 39.6527 66.6659 39.9995 66.6659C40.3462 66.6659 40.6927 66.5191 40.9462 66.2791C41.1862 66.0259 41.3329 65.6791 41.3329 65.3324C41.3329 64.9857 41.1862 64.6391 40.9462 64.3857C40.4395 63.8923 39.5595 63.8923 39.0527 64.3857Z" fill="#D4C17F"/>
<path d="M29.334 49.3333C29.334 50.0692 29.9313 50.6666 30.6673 50.6666H36.0007C36.7366 50.6666 37.334 50.0692 37.334 49.3333V41.3333C37.334 40.5973 36.7366 40 36.0007 40H30.6674C29.9315 40 29.3341 40.5973 29.3341 41.3333V49.3333H29.334ZM32.0007 42.6667H34.6674V48H32.0007V42.6667Z" fill="#D4C17F"/>
<path d="M26.666 57.3333C26.666 58.0692 27.2634 58.6666 27.9993 58.6666H31.9993V70.6666C31.9993 71.4025 32.5966 71.9998 33.3326 71.9998C34.0685 71.9998 34.6659 71.4025 34.6659 70.6666V58.6666H45.3326V70.6666C45.3326 71.4025 45.9299 71.9998 46.6659 71.9998C47.4018 71.9998 47.9991 71.4025 47.9991 70.6666V58.6666H51.9991C52.7351 58.6666 53.3324 58.0692 53.3324 57.3333C53.3324 56.5973 52.7351 56 51.9991 56H27.9993C27.2634 56 26.666 56.5973 26.666 57.3333Z" fill="#D4C17F"/>
<path d="M64 49.3333C64 50.0692 64.5973 50.6666 65.3333 50.6666H70.6666C71.4025 50.6666 71.9998 50.0692 71.9998 49.3333V41.3333C71.9998 40.5973 71.4025 40 70.6666 40H65.3333C64.5973 40 64 40.5973 64 41.3333V49.3333ZM66.6667 42.6667H69.3334V48H66.6667V42.6667Z" fill="#D4C17F"/>
<path d="M57.3338 0H22.6673C21.9313 0 21.334 0.597344 21.334 1.33328V70.6666C21.334 71.4025 21.9313 71.9998 22.6673 71.9998C23.4032 71.9998 24.0005 71.4025 24.0005 70.6666V2.66656H56.0005V70.6666C56.0005 71.4025 56.5979 71.9998 57.3338 71.9998C58.0698 71.9998 58.6671 71.4025 58.6671 70.6666V1.33328C58.6673 0.597344 58.0699 0 57.3338 0Z" fill="#D4C17F"/>
</g>
<defs>
<clipPath id="clip0_443_2446">
<rect width="80" height="80" fill="white"/>
</clipPath>
</defs>
</svg>
