<svg width="80" height="80" viewBox="0 0 80 80" fill="none" xmlns="http://www.w3.org/2000/svg">
<g clip-path="url(#clip0_443_2472)">
<path d="M53.3898 4.62223C53.5724 4.62223 53.7565 4.58489 53.9338 4.50489C54.3151 4.33427 54.7018 4.17286 55.0938 4.02489C55.7832 3.76224 56.1298 2.99286 55.8671 2.3049C55.6057 1.61552 54.8351 1.27427 54.1483 1.53021C53.7069 1.69818 53.271 1.87958 52.843 2.07161C52.171 2.37302 51.8698 3.16224 52.1724 3.83427C52.3938 4.3288 52.8791 4.62223 53.3898 4.62223Z" fill="#D4C17F"/>
<path d="M53.3334 33.5382C54.0708 33.5382 54.6667 32.9423 54.6667 32.2049V31.9743C54.6667 31.6237 54.6894 31.2796 54.7334 30.941C54.8294 30.2104 54.3147 29.541 53.5867 29.4451C52.8347 29.3492 52.1867 29.8637 52.0894 30.5931C52.0308 31.0437 52 31.509 52 31.9745V32.2051C52.0002 32.9423 52.5961 33.5382 53.3334 33.5382Z" fill="#D4C17F"/>
<path d="M46.6673 33.8689C47.4046 33.8689 48.0005 33.2716 48.0005 32.5356V31.1809C48.0005 30.445 47.4046 29.8477 46.6673 29.8477C45.9299 29.8477 45.334 30.445 45.334 31.1809V32.5356C45.334 33.2716 45.9299 33.8689 46.6673 33.8689Z" fill="#D4C17F"/>
<path d="M54.3227 12.7783C53.8933 13.0142 53.4733 13.2689 53.0694 13.5397C52.4574 13.9491 52.2921 14.7783 52.7014 15.3903C52.9588 15.7744 53.3814 15.9809 53.8108 15.9809C54.0667 15.9809 54.3241 15.9089 54.5508 15.7556C54.8934 15.5276 55.2467 15.313 55.6094 15.113C56.2534 14.7583 56.4894 13.9462 56.1347 13.3023C55.7786 12.657 54.9692 12.425 54.3227 12.7783Z" fill="#D4C17F"/>
<path d="M35.4116 12.641C35.6636 13.0437 36.0969 13.2651 36.541 13.2651C36.7836 13.2651 37.029 13.1998 37.2477 13.061C37.8718 12.669 38.061 11.8464 37.6691 11.2237C37.4171 10.8223 37.1558 10.4304 36.8811 10.0464C36.4532 9.44777 35.6225 9.30777 35.0211 9.73839C34.4211 10.1678 34.2838 10.9998 34.7118 11.5984C34.9555 11.9384 35.1889 12.2864 35.4116 12.641Z" fill="#D4C17F"/>
<path d="M59.7872 2.8224C59.8419 2.8224 59.8992 2.81834 59.9552 2.81178C60.3672 2.75975 60.7845 2.71975 61.2058 2.69037C61.9417 2.641 62.4964 2.00631 62.4485 1.27178C62.4005 0.537093 61.7552 -0.0188433 61.0299 0.0303754C60.5552 0.0610003 60.0858 0.107719 59.6219 0.166313C58.8913 0.258344 58.3725 0.924905 58.466 1.65568C58.5499 2.32896 59.1246 2.8224 59.7872 2.8224Z" fill="#D4C17F"/>
<path d="M54.844 24.7211C54.344 25.2611 54.3747 26.1051 54.9134 26.6051C55.1722 26.8437 55.4961 26.9611 55.8214 26.9611C56.18 26.9611 56.5361 26.8184 56.8 26.5344C57.0773 26.2358 57.3826 25.953 57.7079 25.6944C58.2853 25.2358 58.3812 24.397 57.9226 23.8211C57.4653 23.2451 56.6253 23.1464 56.0493 23.6064C55.6187 23.9476 55.2134 24.3237 54.844 24.7211Z" fill="#D4C17F"/>
<path d="M42.7512 13.061C42.9712 13.1996 43.2165 13.2651 43.4592 13.2651C43.9032 13.2651 44.3365 13.0437 44.5886 12.641C44.8112 12.2864 45.0445 11.9384 45.2886 11.5984C45.7165 10.9998 45.5792 10.1678 44.9792 9.73839C44.3778 9.30777 43.5471 9.44777 43.1192 10.0464C42.8445 10.4304 42.5818 10.8223 42.3312 11.2237C41.9393 11.8464 42.1286 12.669 42.7512 13.061Z" fill="#D4C17F"/>
<path d="M53.3333 39.9739C54.0706 39.9739 54.6666 39.3766 54.6666 38.6406V37.9739C54.6666 37.238 54.0706 36.6406 53.3333 36.6406C52.5959 36.6406 52 37.238 52 37.9739V38.6406C52 39.3766 52.5959 39.9739 53.3333 39.9739Z" fill="#D4C17F"/>
<path d="M46.6379 27.0908C46.6993 27.1001 46.7593 27.104 46.8193 27.104C47.4753 27.104 48.0487 26.6187 48.1406 25.9494C48.1953 25.5387 48.2686 25.1334 48.3592 24.7334C48.5232 24.0148 48.0725 23.3014 47.3539 23.1387C46.6353 22.9761 45.9206 23.4255 45.7579 24.1441C45.6512 24.62 45.5632 25.1026 45.4965 25.5908C45.3979 26.3201 45.91 26.9922 46.6379 27.0908Z" fill="#D4C17F"/>
<path d="M37.5623 17.1798C37.6956 17.5744 37.8156 17.973 37.9264 18.3783C38.0878 18.9716 38.6264 19.3624 39.2117 19.3624C39.3276 19.3624 39.445 19.3465 39.5623 19.3144C39.7276 19.2704 39.8717 19.1904 40.0009 19.0958C40.1303 19.1905 40.2742 19.2705 40.4395 19.3144C40.5568 19.3465 40.6742 19.3624 40.7901 19.3624C41.3754 19.3624 41.9142 18.9718 42.0754 18.3783C42.1861 17.973 42.3048 17.5743 42.4395 17.1798C42.6781 16.4824 42.3036 15.7251 41.6075 15.4877C40.9675 15.2691 40.2928 15.5824 40.0007 16.1744C39.7087 15.5824 39.034 15.2691 38.394 15.4877C37.697 15.7251 37.3237 16.4824 37.5623 17.1798Z" fill="#D4C17F"/>
<path d="M47.7864 8.20872C48.097 8.20872 48.409 8.10075 48.661 7.882C48.977 7.60732 49.301 7.3406 49.6317 7.08607C50.2157 6.63669 50.3237 5.80076 49.8757 5.21669C49.4264 4.63263 48.589 4.52201 48.0063 4.97263C47.6317 5.2606 47.2664 5.55935 46.9117 5.86998C46.3557 6.35263 46.297 7.19529 46.781 7.75138C47.0437 8.05419 47.4143 8.20872 47.7864 8.20872Z" fill="#D4C17F"/>
<path d="M48.8214 17.5424C48.5281 17.9318 48.2508 18.3344 47.9908 18.7477C47.5975 19.3704 47.7855 20.1944 48.4082 20.5877C48.6296 20.7251 48.8735 20.7918 49.1175 20.7918C49.5602 20.7918 49.9935 20.5718 50.2469 20.1691C50.4683 19.8185 50.7028 19.4771 50.9522 19.1477C51.3949 18.5598 51.2775 17.7237 50.6896 17.2798C50.1002 16.8357 49.2641 16.9571 48.8214 17.5424Z" fill="#D4C17F"/>
<path d="M61.3025 10.6962C60.8092 10.7336 60.3239 10.7922 59.8451 10.8709C59.1184 10.9909 58.6265 11.6776 58.7465 12.4042C58.8533 13.0575 59.4172 13.5201 60.0598 13.5201C60.1318 13.5201 60.2039 13.5148 60.2772 13.5028C60.6839 13.4361 61.0931 13.3869 61.5078 13.3548C62.2425 13.2975 62.7918 12.6562 62.7345 11.9215C62.677 11.1881 62.0517 10.6336 61.3025 10.6962Z" fill="#D4C17F"/>
<path d="M66.2367 2.92326C66.6514 2.98998 67.0647 3.06857 67.4727 3.15794C67.57 3.17935 67.6647 3.18857 67.7594 3.18857C68.3727 3.18857 68.9234 2.76451 69.0608 2.14185C69.2181 1.42185 68.7634 0.71123 68.0434 0.553887C67.5849 0.452637 67.1234 0.365918 66.6555 0.291231C65.9288 0.171231 65.2461 0.67123 65.1302 1.39795C65.0141 2.12466 65.5088 2.80857 66.2367 2.92326Z" fill="#D4C17F"/>
<path d="M68.518 11.655C68.058 11.4909 67.59 11.3443 67.1166 11.219C66.4086 11.035 65.6766 11.455 65.486 12.167C65.298 12.879 65.7219 13.6082 66.4339 13.7976C66.8353 13.9029 67.2299 14.0256 67.6166 14.1656C67.766 14.2189 67.9166 14.2442 68.0672 14.2442C68.6139 14.2442 69.1272 13.9042 69.3219 13.3601C69.5714 12.667 69.21 11.9029 68.518 11.655Z" fill="#D4C17F"/>
<path d="M62.1245 21.3227C61.3885 21.36 60.8218 21.9853 60.8592 22.72C60.8951 23.456 61.4724 24.016 62.2565 23.9853C62.6659 23.9653 63.0885 23.9774 63.4938 24.0186C63.5406 24.0239 63.5871 24.0253 63.6326 24.0253C64.3085 24.0253 64.8859 23.5147 64.9579 22.8294C65.0326 22.0961 64.4993 21.4414 63.7673 21.3653C63.2271 21.3107 62.6685 21.2935 62.1245 21.3227Z" fill="#D4C17F"/>
<path d="M77.6816 8.87208C77.9442 9.16005 78.3056 9.30677 78.6669 9.30677C78.9883 9.30677 79.3095 9.19208 79.5655 8.9588C80.1095 8.46287 80.1481 7.6188 79.6522 7.07474C79.4922 6.90006 79.3295 6.72803 79.1655 6.56006C78.6481 6.03334 77.8055 6.02678 77.2802 6.54131C76.7522 7.05599 76.7455 7.8999 77.2587 8.42662C77.403 8.57208 77.5442 8.72146 77.6816 8.87208Z" fill="#D4C17F"/>
<path d="M57.3332 50.6408H41.3332C40.5959 50.6408 40 51.2381 40 51.974C40 52.71 40.5959 53.3073 41.3332 53.3073H57.3332C61.0718 53.3073 63.9999 50.3794 63.9999 46.6406V43.9739C63.9999 43.238 63.404 42.6406 62.6666 42.6406H17.3333C16.5959 42.6406 16 43.238 16 43.9739V46.6406C16 50.3792 18.928 53.3073 22.6667 53.3073H34.6667V59.974C34.6667 60.71 35.2626 61.3073 36 61.3073C36.7373 61.3073 37.3332 60.71 37.3332 59.974V51.974C37.3332 51.2381 36.7373 50.6408 36 50.6408H22.6667C20.4226 50.6408 18.6667 48.8834 18.6667 46.6408V45.3075H61.3333V46.6408C61.3332 48.8834 59.5771 50.6408 57.3332 50.6408Z" fill="#D4C17F"/>
<path d="M70.646 31.4013C70.6593 31.5893 70.666 31.7813 70.666 31.9734C70.666 32.7093 71.2619 33.3067 71.9993 33.3067C72.7366 33.3067 73.3325 32.7093 73.3325 31.9734C73.3325 31.7174 73.3232 31.464 73.3046 31.212C73.2525 30.4787 72.6286 29.924 71.8805 29.976C71.146 30.0293 70.5939 30.6667 70.646 31.4013Z" fill="#D4C17F"/>
<path d="M67.8309 24.0842C67.3442 24.6374 67.3976 25.4788 67.9495 25.9668C68.2589 26.2388 68.5481 26.5362 68.8095 26.8509C69.0748 27.1682 69.4536 27.3309 69.8362 27.3309C70.1362 27.3309 70.4389 27.2296 70.6882 27.0229C71.2536 26.5509 71.3309 25.7109 70.8589 25.1443C70.5109 24.7256 70.1242 24.3284 69.7121 23.9656C69.1615 23.4803 68.3189 23.5309 67.8309 24.0842Z" fill="#D4C17F"/>
<path d="M41.3326 30.5677C41.3326 29.8317 40.7366 29.2344 39.9993 29.2344C39.262 29.2344 38.666 29.8317 38.666 30.5677V32.0503C38.666 32.7862 39.262 33.3836 39.9993 33.3836C40.7366 33.3836 41.3326 32.7862 41.3326 32.0503V30.5677Z" fill="#D4C17F"/>
<path d="M39.9993 36.6406C39.262 36.6406 38.666 37.238 38.666 37.9739V38.6406C38.666 39.3766 39.262 39.9739 39.9993 39.9739C40.7366 39.9739 41.3326 39.3766 41.3326 38.6406V37.9739C41.3326 37.238 40.7365 36.6406 39.9993 36.6406Z" fill="#D4C17F"/>
<path d="M45.334 38.6406C45.334 39.3766 45.9299 39.9739 46.6673 39.9739C47.4046 39.9739 48.0005 39.3766 48.0005 38.6406V37.9739C48.0005 37.238 47.4046 36.6406 46.6673 36.6406C45.9299 36.6406 45.334 37.238 45.334 37.9739V38.6406Z" fill="#D4C17F"/>
<path d="M41.3327 23.9766C41.3327 23.7659 41.3353 23.558 41.3421 23.3486C41.358 22.7792 41.01 22.29 40.5115 22.0859C40.4608 22.0633 40.4035 22.0633 40.35 22.0473C40.25 22.0206 40.1554 21.9806 40.0474 21.978C40.0341 21.9766 40.0221 21.9766 40.0074 21.9766C40.0047 21.9766 40.0021 21.978 39.9994 21.978C39.9968 21.978 39.9941 21.9766 39.9915 21.9766C39.9768 21.9766 39.9647 21.9766 39.9515 21.978C39.8435 21.9806 39.7474 22.0206 39.6488 22.0473C39.5955 22.0633 39.5368 22.0633 39.4874 22.0859C38.9888 22.29 38.6407 22.7792 38.6568 23.3486C38.6635 23.558 38.6662 23.7659 38.6662 23.9766V24.6433C38.6662 25.3792 39.2621 25.9766 39.9994 25.9766C40.7368 25.9766 41.3327 25.3792 41.3327 24.6433V23.9766V23.9766Z" fill="#D4C17F"/>
<path d="M32 38.6406C32 39.3766 32.5959 39.9739 33.3333 39.9739C34.0706 39.9739 34.6666 39.3766 34.6666 38.6406V37.9739C34.6666 37.238 34.0706 36.6406 33.3333 36.6406C32.5959 36.6406 32 37.238 32 37.9739V38.6406Z" fill="#D4C17F"/>
<path d="M33.3333 33.8689C34.0706 33.8689 34.6666 33.2716 34.6666 32.5356V31.1809C34.6666 30.445 34.0706 29.8477 33.3333 29.8477C32.5959 29.8477 32 30.445 32 31.1809V32.5356C32 33.2716 32.5959 33.8689 33.3333 33.8689Z" fill="#D4C17F"/>
<path d="M28.0005 38.6406V37.9739C28.0005 37.238 27.4046 36.6406 26.6673 36.6406C25.9299 36.6406 25.334 37.238 25.334 37.9739V38.6406C25.334 39.3766 25.9299 39.9739 26.6673 39.9739C27.4046 39.9739 28.0005 39.3767 28.0005 38.6406Z" fill="#D4C17F"/>
<path d="M9.31214 27.0241C9.56151 27.2308 9.86276 27.332 10.1642 27.332C10.5468 27.332 10.9256 27.1694 11.1909 26.852C11.4523 26.5373 11.7415 26.24 12.0509 25.968C12.6029 25.48 12.6562 24.6386 12.1695 24.0853C11.6842 23.532 10.8415 23.4786 10.2881 23.9666C9.87604 24.3292 9.48932 24.7266 9.14011 25.1453C8.66948 25.712 8.74683 26.552 9.31214 27.0241Z" fill="#D4C17F"/>
<path d="M73.3339 63.9765H45.3339V57.3098C45.3339 56.5739 44.738 55.9766 44.0006 55.9766C43.2633 55.9766 42.6673 56.5739 42.6673 57.3098V65.3098C42.6673 66.0458 43.2633 66.6431 44.0006 66.6431H72.0006V73.3098C72.0006 75.5151 70.2059 77.3098 68.0006 77.3098H12.0007C9.79538 77.3098 8.0007 75.5151 8.0007 73.3098V66.6431H38.778C39.5153 66.6431 40.1113 66.0458 40.1113 65.3098C40.1113 64.5739 39.5153 63.9765 38.778 63.9765H6.66726C5.92992 63.9765 5.33398 64.5739 5.33398 65.3098V73.3098C5.33398 76.9857 8.3246 79.9765 12.0007 79.9765H68.0006C71.6765 79.9765 74.6673 76.9859 74.6673 73.3098V65.3098C74.6671 64.5739 74.0712 63.9765 73.3339 63.9765Z" fill="#D4C17F"/>
<path d="M32 70.6419V73.3086C32 74.0445 32.5959 74.6419 33.3333 74.6419C34.0706 74.6419 34.6666 74.0445 34.6666 73.3086V70.6419C34.6666 69.9059 34.0706 69.3086 33.3333 69.3086C32.5959 69.3086 32 69.9059 32 70.6419Z" fill="#D4C17F"/>
<path d="M1.39328 25.978C1.37734 25.9766 1.36125 25.9766 1.34531 25.9766C0.63203 25.9766 0.0385937 26.5433 0.0146875 27.2633C0.00531249 27.5006 0 27.738 0 27.9766C0 28.7125 0.595937 29.3098 1.33328 29.3098C2.07062 29.3098 2.66656 28.7125 2.66656 27.9766C2.66656 27.7686 2.67187 27.5633 2.67859 27.3566C2.7039 26.6206 2.12922 26.0033 1.39328 25.978Z" fill="#D4C17F"/>
<path d="M7.15303 17.4133C7.45162 17.1253 7.7624 16.8506 8.0824 16.5892C8.65303 16.1225 8.73834 15.2825 8.27178 14.7133C7.80647 14.1439 6.96647 14.0559 6.39584 14.5239C6.0185 14.8333 5.65178 15.1572 5.30256 15.4959C4.77194 16.0066 4.75725 16.8506 5.26788 17.3812C5.52928 17.6519 5.8785 17.788 6.22787 17.788C6.561 17.7878 6.89569 17.6639 7.15303 17.4133Z" fill="#D4C17F"/>
<path d="M3.62817 19.6057C2.97083 19.2777 2.16676 19.5416 1.8388 20.2003C1.6202 20.635 1.41739 21.0817 1.23614 21.5363C0.962861 22.2216 1.29614 22.9963 1.9788 23.2695C2.14145 23.3349 2.30817 23.3655 2.47348 23.3655C3.00286 23.3655 3.50411 23.0481 3.71207 22.5269C3.86535 22.1416 4.03614 21.7642 4.22145 21.3949C4.55207 20.7364 4.28676 19.9364 3.62817 19.6057Z" fill="#D4C17F"/>
<path d="M6.02958 5.56376C6.25489 5.56376 6.48427 5.50641 6.69364 5.38641C7.05505 5.17844 7.42161 4.98235 7.7963 4.79969C8.4563 4.47438 8.72833 3.67438 8.40427 3.01439C8.07895 2.35298 7.27755 2.08236 6.61896 2.40642C6.19224 2.61579 5.77364 2.83845 5.36302 3.07439C4.72568 3.44235 4.50568 4.25704 4.87365 4.89579C5.12037 5.32376 5.56958 5.56376 6.02958 5.56376Z" fill="#D4C17F"/>
<path d="M18.666 70.6419V73.3086C18.666 74.0445 19.262 74.6419 19.9993 74.6419C20.7366 74.6419 21.3326 74.0445 21.3326 73.3086V70.6419C21.3326 69.9059 20.7366 69.3086 19.9993 69.3086C19.262 69.3086 18.666 69.9059 18.666 70.6419Z" fill="#D4C17F"/>
<path d="M78.0217 23.269C78.7043 22.9957 79.0376 22.221 78.7643 21.5357C78.5829 21.081 78.3803 20.6343 78.1617 20.1998C77.8323 19.5412 77.0311 19.2784 76.3723 19.6051C75.7137 19.9357 75.4482 20.7357 75.779 21.3944C75.9643 21.7638 76.135 22.1412 76.2884 22.5265C76.4964 23.0479 76.9978 23.3651 77.5257 23.3651C77.6923 23.3649 77.859 23.3343 78.0217 23.269Z" fill="#D4C17F"/>
<path d="M79.985 27.2601C79.961 26.5228 79.3077 25.9322 78.6064 25.9748C77.8705 26.0001 77.2958 26.6175 77.3211 27.3534C77.3278 27.5601 77.3331 27.7655 77.3331 27.9734C77.3331 28.7094 77.9291 29.3067 78.6664 29.3067C79.4038 29.3067 79.9997 28.7094 79.9997 27.9734C79.9997 27.7348 79.9942 27.4975 79.985 27.2601Z" fill="#D4C17F"/>
<path d="M74.6356 3.07352C74.2262 2.83759 73.8077 2.61493 73.3809 2.40556C72.725 2.0829 71.9209 2.35352 71.5956 3.01352C71.2716 3.67352 71.5436 4.47352 72.2036 4.79883C72.5783 4.98149 72.945 5.17758 73.305 5.38555C73.5156 5.50555 73.745 5.56289 73.9691 5.56289C74.4305 5.56289 74.8797 5.32289 75.1264 4.89493C75.4942 4.25618 75.2742 3.44149 74.6356 3.07352Z" fill="#D4C17F"/>
<path d="M61.3326 73.3086V70.6419C61.3326 69.9059 60.7366 69.3086 59.9993 69.3086C59.262 69.3086 58.666 69.9059 58.666 70.6419V73.3086C58.666 74.0445 59.262 74.6419 59.9993 74.6419C60.7366 74.6419 61.3326 74.0445 61.3326 73.3086Z" fill="#D4C17F"/>
<path d="M48.0005 73.3086V70.6419C48.0005 69.9059 47.4046 69.3086 46.6673 69.3086C45.9299 69.3086 45.334 69.9059 45.334 70.6419V73.3086C45.334 74.0445 45.9299 74.6419 46.6673 74.6419C47.4044 74.6419 48.0005 74.0445 48.0005 73.3086Z" fill="#D4C17F"/>
<path d="M73.605 14.5239C73.0329 14.0559 72.1929 14.1439 71.729 14.7133C71.2623 15.2827 71.3476 16.1227 71.917 16.5892C72.2384 16.8506 72.549 17.1251 72.8476 17.4133C73.105 17.6639 73.4396 17.788 73.7729 17.788C74.1223 17.788 74.4703 17.652 74.7329 17.3812C75.2435 16.8506 75.2289 16.0066 74.6982 15.4959C74.349 15.1572 73.9823 14.8333 73.605 14.5239Z" fill="#D4C17F"/>
<path d="M8.11804 29.9759C7.35664 29.9252 6.74602 30.4785 6.69273 31.2118C6.67539 31.4638 6.66602 31.7171 6.66602 31.9732C6.66602 32.7091 7.26195 33.3065 7.99929 33.3065C8.73664 33.3065 9.33257 32.7091 9.33257 31.9732C9.33257 31.7812 9.33929 31.5891 9.35257 31.4012C9.40476 30.6665 8.85273 30.0292 8.11804 29.9759Z" fill="#D4C17F"/>
<path d="M26.4141 29.4454C25.6861 29.5413 25.1714 30.2107 25.2674 30.9413C25.3114 31.2799 25.3341 31.624 25.3341 31.9746V32.2052C25.3341 32.9426 25.93 33.5385 26.6674 33.5385C27.4047 33.5385 28.0006 32.9426 28.0006 32.2052V31.9746C28.0006 31.5093 27.9713 31.044 27.9113 30.5932C27.8141 29.864 27.158 29.348 26.4141 29.4454Z" fill="#D4C17F"/>
<path d="M24.9059 4.02489C25.298 4.17286 25.6845 4.33427 26.0659 4.50489C26.2433 4.58489 26.4273 4.62223 26.61 4.62223C27.1194 4.62223 27.6059 4.32895 27.8273 3.83427C28.13 3.16224 27.8287 2.37286 27.1567 2.07161C26.7287 1.87958 26.2927 1.69833 25.8514 1.53021C25.1673 1.27427 24.3941 1.61552 24.1328 2.3049C23.87 2.99286 24.2166 3.76224 24.9059 4.02489Z" fill="#D4C17F"/>
<path d="M24.3916 15.113C24.753 15.313 25.1075 15.5276 25.4501 15.7556C25.6781 15.9089 25.9342 15.9809 26.1901 15.9809C26.6195 15.9809 27.0422 15.7742 27.2995 15.3903C27.7089 14.7783 27.5436 13.9491 26.9315 13.5397C26.5262 13.2691 26.1075 13.0144 25.6783 12.7783C25.0316 12.425 24.2223 12.657 23.8662 13.3023C23.5116 13.9462 23.7475 14.7583 24.3916 15.113Z" fill="#D4C17F"/>
<path d="M1.33352 9.3096C1.69493 9.3096 2.05618 9.16288 2.31883 8.87491C2.45617 8.72428 2.59758 8.57491 2.74149 8.4296C3.25477 7.90288 3.2468 7.05898 2.72008 6.54429C2.19602 6.0296 1.35336 6.03898 0.834772 6.56304C0.67071 6.73101 0.508054 6.90304 0.348055 7.07773C-0.147882 7.62179 -0.109288 8.46569 0.434773 8.96178C0.690866 9.19491 1.01212 9.3096 1.33352 9.3096Z" fill="#D4C17F"/>
<path d="M22.2916 25.6977C22.6169 25.9563 22.9223 26.2391 23.1996 26.5377C23.4637 26.8218 23.8196 26.9644 24.1782 26.9644C24.5022 26.9644 24.8276 26.8471 25.0862 26.6085C25.6249 26.1085 25.6555 25.2644 25.1555 24.7244C24.7862 24.3271 24.3808 23.9512 23.9502 23.6098C23.3702 23.1512 22.5329 23.2484 22.0769 23.8244C21.6183 24.4004 21.7143 25.2391 22.2916 25.6977Z" fill="#D4C17F"/>
<path d="M29.7527 20.1691C30.006 20.5718 30.4394 20.7918 30.882 20.7918C31.1261 20.7918 31.37 20.7251 31.5914 20.5877C32.2141 20.1944 32.402 19.3704 32.0088 18.7477C31.7474 18.3344 31.47 17.9318 31.1781 17.5424C30.7341 16.9571 29.8996 16.8357 29.3102 17.2798C28.7222 17.7238 28.6049 18.5598 29.0475 19.1477C29.2966 19.4773 29.5313 19.8185 29.7527 20.1691Z" fill="#D4C17F"/>
<path d="M30.3698 7.08607C30.7004 7.34075 31.0245 7.60747 31.3404 7.882C31.5925 8.102 31.9045 8.20872 32.2151 8.20872C32.5872 8.20872 32.9578 8.05403 33.2204 7.75138C33.7045 7.19544 33.6457 6.35279 33.0898 5.86998C32.7351 5.55935 32.3698 5.2606 31.9951 4.97263C31.4125 4.52201 30.5765 4.63263 30.1258 5.21669C29.6778 5.80076 29.7859 6.63685 30.3698 7.08607Z" fill="#D4C17F"/>
<path d="M12.2406 3.18497C12.3353 3.18497 12.4299 3.17559 12.5259 3.15434C12.9353 3.06497 13.3485 2.98637 13.7632 2.91966C14.4912 2.80497 14.9859 2.12106 14.8699 1.39435C14.7552 0.667628 14.074 0.166379 13.3446 0.287629C12.8767 0.362316 12.414 0.449035 11.9567 0.550285C11.2367 0.707628 10.782 1.41825 10.9393 2.13825C11.0765 2.76106 11.6273 3.18497 12.2406 3.18497Z" fill="#D4C17F"/>
<path d="M18.7926 2.69085C19.214 2.72022 19.6312 2.76022 20.0432 2.81225C20.0991 2.81897 20.1565 2.82288 20.2111 2.82288C20.8738 2.82288 21.4485 2.3296 21.5324 1.65616C21.6257 0.925538 21.1071 0.258821 20.3765 0.16679C19.9124 0.108196 19.4432 0.0614773 18.9697 0.0308523C18.2512 -0.0224288 17.5977 0.53757 17.5497 1.27226C17.5019 2.00679 18.0565 2.64147 18.7926 2.69085Z" fill="#D4C17F"/>
<path d="M32.6454 23.1383C31.9268 23.301 31.476 24.0142 31.6387 24.733C31.7307 25.133 31.8027 25.5383 31.8587 25.9489C31.9507 26.6183 32.5227 27.1036 33.1801 27.1036C33.2401 27.1036 33.3001 27.0995 33.3601 27.0903C34.0894 26.9917 34.6015 26.3197 34.5027 25.5903C34.436 25.1023 34.348 24.6197 34.2413 24.1436C34.0787 23.4263 33.3601 22.9769 32.6454 23.1383Z" fill="#D4C17F"/>
<path d="M11.9333 14.2442C12.0827 14.2442 12.2347 14.2189 12.3839 14.1656C12.7707 14.0256 13.1654 13.9029 13.5666 13.7976C14.2786 13.6082 14.7025 12.879 14.5146 12.167C14.3252 11.455 13.5946 11.035 12.8839 11.219C12.4107 11.3443 11.9425 11.4911 11.4825 11.655C10.7905 11.9029 10.4293 12.667 10.6785 13.3603C10.8733 13.9042 11.3866 14.2442 11.9333 14.2442Z" fill="#D4C17F"/>
<path d="M18.4925 13.355C18.9072 13.3871 19.3166 13.4364 19.7231 13.503C19.7964 13.515 19.8685 13.5203 19.9405 13.5203C20.5819 13.5203 21.1472 13.0577 21.2538 12.4044C21.3738 11.6777 20.8817 10.9911 20.1552 10.8711C19.6766 10.7925 19.1911 10.7338 18.6978 10.6964C17.9725 10.6324 17.3232 11.1871 17.2658 11.9218C17.2086 12.6564 17.7578 13.2977 18.4925 13.355Z" fill="#D4C17F"/>
<path d="M16.3674 24.0254C16.4128 24.0254 16.4595 24.024 16.506 24.0187C16.9113 23.9773 17.334 23.9654 17.7434 23.9854C18.5101 24.0201 19.1048 23.456 19.1407 22.7201C19.1781 21.9854 18.6113 21.3601 17.8754 21.3228C17.3301 21.2934 16.7713 21.3107 16.2328 21.3654C15.5007 21.4413 14.9674 22.096 15.0421 22.8295C15.114 23.5148 15.6914 24.0254 16.3674 24.0254Z" fill="#D4C17F"/>
</g>
<defs>
<clipPath id="clip0_443_2472">
<rect width="80" height="80" fill="white"/>
</clipPath>
</defs>
</svg>
