<svg width="21" height="21" viewBox="0 0 21 21" fill="none" xmlns="http://www.w3.org/2000/svg">
<path d="M10.5694 4.60156C9.08938 4.60156 7.88477 5.80618 7.88477 7.28615C7.88477 8.76613 9.08938 9.97074 10.5694 9.97074C12.0493 9.97074 13.2539 8.76613 13.2539 7.28615C13.2539 5.80618 12.0493 4.60156 10.5694 4.60156ZM10.5694 9.20371C9.51201 9.20371 8.65179 8.34349 8.65179 7.28615C8.65179 6.22881 9.51201 5.36859 10.5694 5.36859C11.6267 5.36859 12.4869 6.22881 12.4869 7.28615C12.4869 8.34349 11.6267 9.20371 10.5694 9.20371Z" fill="white"/>
<path d="M15.7017 2.15419C14.3126 0.765108 12.4656 0 10.5013 0C8.53654 0 6.68993 0.765108 5.30085 2.15419C2.73016 4.72449 2.4107 9.56059 4.60899 12.4906L10.5013 21L16.3847 12.5025C18.5919 9.56059 18.2724 4.72449 15.7017 2.15419ZM15.7627 12.0542L10.5013 19.6523L5.23143 12.0423C3.23755 9.38379 3.52327 5.01634 5.84352 2.69648C7.08763 1.45236 8.74172 0.767025 10.5013 0.767025C12.2608 0.767025 13.9149 1.45236 15.1594 2.69648C17.4797 5.01634 17.7654 9.38379 15.7627 12.0542Z" fill="white"/>
</svg>
